<svg xmlns="http://www.w3.org/2000/svg" width="86.948" height="100" viewBox="0 0 86.948 100">
  <g id="arr" transform="translate(-32 -25)">
    <path id="Path_1" data-name="Path 1" d="M33.023,27.683a56.366,56.366,0,0,0,9.443,3.37c8.648,2.178,17.138,2,25.4-1.653A34.762,34.762,0,0,0,74.9,25.25a.779.779,0,0,1,1.145,0,35.177,35.177,0,0,0,17.233,6.963,42.376,42.376,0,0,0,17.329-1.765,59.563,59.563,0,0,0,7.3-2.782c.159,1.765.318,3.466.445,5.167.461,6.025.684,12.051.572,18.092-.206,11.8-1.51,23.434-5.15,34.737a65.36,65.36,0,0,1-12.1,22.575,52.643,52.643,0,0,1-25.8,16.708,1.785,1.785,0,0,1-1.081-.079c-14.9-4.531-25.755-13.927-32.893-27.71a84.913,84.913,0,0,1-8.076-25.373A137.876,137.876,0,0,1,32.037,51.8a194.433,194.433,0,0,1,.795-21.733C32.9,29.3,32.959,28.541,33.023,27.683Zm2.512,4.229c-.048.175-.08.27-.1.366-.318,4.467-.572,8.935-.636,13.4a161.646,161.646,0,0,0,.89,20.381,95.987,95.987,0,0,0,4.642,21.112,57.637,57.637,0,0,0,13.132,21.589,58.088,58.088,0,0,0,19.284,12.7c2.687,1.129,2.687,1.129,5.405,0a57.53,57.53,0,0,0,20.063-13.5c6.534-6.915,10.731-15.134,13.482-24.165a109.839,109.839,0,0,0,4.229-26.184c.27-5.1.286-10.206.111-15.326-.127-3.434-.3-6.868-.572-10.286a2.13,2.13,0,0,0-1.018.223,60.563,60.563,0,0,1-16.5,2.909,35.5,35.5,0,0,1-17.265-3.752,33.532,33.532,0,0,1-5.2-3.323c-.254.191-.477.35-.684.493a33.937,33.937,0,0,1-19.554,6.55,54.974,54.974,0,0,1-17.217-2.464C37.2,32.42,36.393,32.166,35.535,31.912Z" fill="#fff"/>
    <path id="Path_2" data-name="Path 2" d="M70.542,116.68a59.51,59.51,0,0,1-14.531-10.414A54.932,54.932,0,0,1,42.4,83.008a93.429,93.429,0,0,1-3.673-20.27,142.03,142.03,0,0,1-.413-15.389c.1-3.386.318-6.773.477-10.143.016-.254.064-.509.111-.843,1.447.366,2.83.731,4.245,1.049a44.924,44.924,0,0,0,15.278,1.081A33.2,33.2,0,0,0,74.8,31.928c.207-.159.429-.3.668-.493a38.484,38.484,0,0,0,5.389,3.482,34.453,34.453,0,0,0,18.346,3.752,57.928,57.928,0,0,0,12.321-2.21,3.022,3.022,0,0,1,.557-.1c.079,1.192.174,2.337.254,3.5a158.2,158.2,0,0,1-.3,25.151c-.906,8.951-2.735,17.663-6.487,25.9A52.221,52.221,0,0,1,84.93,114.12c-.1.048-.175.111-.27.159-.016.016-.048-.016-.143-.032a16.153,16.153,0,0,1,0-2.321c.064-6.041.111-12.082.207-18.108a1.015,1.015,0,0,0-.6-1.049c-2.146-1.208-4.261-2.464-6.391-3.688-2.178,1.113-4.372,2.226-6.55,3.338a.716.716,0,0,0-.445.747c.064,3.641,0,7.3.1,10.938.111,4.023.048,8.045.064,12.051C70.876,116.346,70.971,116.68,70.542,116.68ZM91.8,83.946a18.452,18.452,0,0,1-3.593.286,3.112,3.112,0,0,1-3.227-2.051,17.779,17.779,0,0,1-.922-2.528A69.755,69.755,0,0,1,82.323,66.7c-.334-4.881-.62-9.761-.922-14.658-.032-.509-.175-1.065.477-1.351.222-.1.127-.382.111-.588-.048-1.447-.111-2.909-.159-4.356-.016-.382-.127-.541-.525-.62-1.176-.222-2.321-.509-3.5-.747a1.355,1.355,0,0,0-.62.032A41.053,41.053,0,0,0,72.8,45.473c-11.128,3.482-19.284,10.35-23.895,21.144-2.258,5.294-3.2,10.811-1.86,16.518,1.113,4.785,3.736,8.378,8.6,9.936a16.827,16.827,0,0,0,8.792.159A39.8,39.8,0,0,0,76.917,87.9a1.121,1.121,0,0,1,1.351,0c2.067,1.24,4.149,2.432,6.216,3.672a1.105,1.105,0,0,0,1.224.064c1.987-1,3.895-2.13,5.835-3.211.843-.461,1.685-.922,2.591-1.415A8.5,8.5,0,0,1,91.8,83.946ZM73.992,44.439a16.88,16.88,0,0,1,3.688-.795,16.364,16.364,0,0,1,3.672.795,3.46,3.46,0,0,0-3.513-2.8C76.17,41.578,74.119,42.643,73.992,44.439Z" fill="#fff"/>
    <path id="Path_3" data-name="Path 3" d="M70.542,116.679c.429,0,.334-.317.334-.572-.016-4.022.048-8.044-.063-12.05-.1-3.641-.032-7.3-.1-10.938a.728.728,0,0,1,.445-.747c2.194-1.1,4.372-2.226,6.55-3.339l-.048,21.605c0,2.146-.032,4.293,0,6.439a1.243,1.243,0,0,1-.763,1.288,2.58,2.58,0,0,1-2.814.031C72.959,117.729,71.734,117.236,70.542,116.679Z" fill="#fff"/>
    <path id="Path_4" data-name="Path 4" d="M73.324,48.684a3.165,3.165,0,0,1-.016,1.16c0,.429-.064.827.429,1.065.27.127.191.413.175.652-.366,7.679-.477,15.389-1.463,23.036a32.334,32.334,0,0,1-1.574,7.027,5.975,5.975,0,0,1-2.067,3.036,16.6,16.6,0,0,1-8.68,3.355,8.419,8.419,0,0,1-8.092-4.483,15.517,15.517,0,0,1-1.876-9.253,26.268,26.268,0,0,1,7.472-16.327,34.459,34.459,0,0,1,15.31-9.237,1,1,0,0,1,.3-.048C73.261,48.652,73.277,48.668,73.324,48.684Z" fill="#fff"/>
  </g>
</svg>
