<svg xmlns="http://www.w3.org/2000/svg" width="96.172" height="100" viewBox="0 0 96.172 100">
  <path id="orc" d="M137.434,92.908c-4.392-.61-7.9.143-10.428,2.244-2.94,2.45-4.563,6.752-4.822,12.785l-.034.8.774-.213c10.3-2.834,12.4-1.678,12.8-1.257a.584.584,0,0,1,.1.14,28.4,28.4,0,0,0-21.248,11.938c-5.4-1.571-10.02-4.425-20.721-15.411l-.124-.127-.172-.037-.052-.011c-7.747-21.369-2.548-30.655.012-33.611-.911,6.564-2.665,29.916,16.5,39.313l.16.079.177-.024c.556-.078,13.57-2.368,9-44.166C115.856,53.3,108,46.443,97.219,46.037c-12.552-.462-26.571,8.355-30.675,19.373-.141.766-2.994,18.144,22.56,37.5-12.134-2.114-15.724-.207-22.684,3.546l-1.85.993C55.105,112.472,50,125.468,50,129.674c0,4.111,0,15.03,19.349,16.266q1.272.081,2.554.08c17.98,0,36.918-11.529,39.9-14.713a15.3,15.3,0,0,0,3.417-4.738c14.289-2.942,19.565-4.733,24.265-7,4.73-2.278,5.977-7.108,6.573-11.531C146.685,103.423,144.743,93.929,137.434,92.908Z" transform="translate(-50 -46.019)" fill="#fff"/>
</svg>
