<svg xmlns="http://www.w3.org/2000/svg" width="255.157" height="100" viewBox="0 0 255.157 100">
  <path id="stag" d="M234.246,18c1.694.157,3.432.321,5.125.536a36.2,36.2,0,0,1,11.295,2.714,15.888,15.888,0,0,1,9.762,12.543c.708,3.95.438,7.9.489,11.85v1.6H234.355V46.071c0-3.786,0-7.579-.051-11.371-.058-2.5-1.146-3.843-3.278-4-3.271-.321-5.235.8-5.834,3.307a12.633,12.633,0,0,0-.27,2.507V77.55a10.719,10.719,0,0,0,.657,3.471,3.672,3.672,0,0,0,3.212,2.45,12.255,12.255,0,0,0,3.11-.05c2.125-.371,3.212-1.864,3.271-4.379.058-4.429,0-8.907,0-13.336a4.393,4.393,0,0,0-.109-.643h-5.344V54.45h31.964V94.843h-17.23c-.657-1.657-1.314-3.357-2.022-5.071-.168.057-.329.057-.387.157-3.541,3.314-7.849,4.964-12.543,5.871a35.88,35.88,0,0,1-17.011-.586c-7.965-2.35-12.39-7.786-13.748-15.686a35.4,35.4,0,0,1-.387-5.393q-.082-16.408,0-32.815a24.363,24.363,0,0,1,2.46-11.585c2.395-4.586,6.381-7.307,11.229-9.014a46.752,46.752,0,0,1,12.77-2.4c.657-.057,1.307-.164,1.964-.214C229.23,18,231.742,18,234.246,18ZM40.235,18c1.752.157,3.49.321,5.235.536a36.786,36.786,0,0,1,13.04,3.357c4.687,2.4,7.418,6.143,7.637,11.371.1,2.714,0,5.443,0,8.271H42.031c0-.321-.051-.643-.051-.964,0-1.921.058-3.843-.051-5.764-.219-4-4.257-6.186-7.914-4.264A3.247,3.247,0,0,0,32.16,33.1,34.454,34.454,0,0,0,32,38.914a6.056,6.056,0,0,0,3.432,4.75c2.9,1.657,5.95,3.207,9,4.593,4.585,2.079,9.272,3.95,13.47,6.721a22.809,22.809,0,0,1,7.586,7.471,15.651,15.651,0,0,1,2.293,7.686c.051,2.879.11,5.764,0,8.643-.277,6.886-3.709,11.743-10.2,14.514a36.1,36.1,0,0,1-10.309,2.564,96.14,96.14,0,0,1-17.019.429c-4.906-.321-9.762-.964-14.288-2.993-5.293-2.35-8.4-6.4-8.834-12.057C6.8,76.857,6.913,72.479,6.8,68.05a2.084,2.084,0,0,1,.1-.479H32.05V79.843c0,1.657.329,3.257,2.022,4.114a5.656,5.656,0,0,0,5.454-.107,3.312,3.312,0,0,0,1.8-2.671,56.01,56.01,0,0,0,.168-8.057c-.219-2.557-1.971-4.479-4.037-5.814q-3.946-2.37-8.075-4.429c-4.249-2.136-8.615-4.057-12.813-6.3a20.468,20.468,0,0,1-7.8-7.357,16.542,16.542,0,0,1-2.015-5.764c-.051-.271-.161-.536-.219-.807V34.971c.058-.271.168-.536.219-.857a15.191,15.191,0,0,1,9-12.429,35.138,35.138,0,0,1,11.886-3.15c1.635-.214,3.329-.321,4.965-.536h7.637Zm81.925,99.893c-.548-.157-1.146-.321-1.694-.536a4.924,4.924,0,0,1-3.49-3.736,7.036,7.036,0,0,1-.051-1.064h2.993c.876,2.457,2.789,3.414,5.184,2.564.818-.271,1.475-.75,1.475-1.657a1.732,1.732,0,0,0-1.365-1.714c-1.146-.364-2.293-.636-3.431-.957a18.846,18.846,0,0,1-2.19-.743,3.9,3.9,0,0,1-.54-6.779,7.7,7.7,0,0,1,8.455.057,3.984,3.984,0,0,1,1.635,3.464h-2.993c-.876-1.971-2.409-2.714-4.308-2.079a1.657,1.657,0,0,0-1.314,1.6c-.058.8.548,1.229,1.2,1.443,1.475.429,2.95.8,4.366,1.229,2.942.85,4.2,2.821,3.431,5.443-.54,1.971-2.117,2.821-4.03,3.307a5.65,5.65,0,0,0-.927.264,17.7,17.7,0,0,0-2.409-.107Zm-28.912,0c-.489-.157-.927-.321-1.416-.429a4.617,4.617,0,0,1-3.651-4.321c-.168-2.614-.11-5.286-.168-7.95v-2.664h3.329v9.493c0,1.179.219,2.243,1.416,2.779a4.1,4.1,0,0,0,3.928-.164,2.476,2.476,0,0,0,.986-1.493,7.01,7.01,0,0,0,.219-1.814v-8.857h3.161a2.5,2.5,0,0,1,.051.586v8.964c-.051,3.15-1.577,4.964-4.746,5.607-.219.05-.38.157-.6.214-.876.05-1.694.05-2.512.05Zm73.638-23.107c-.438-4.371-.927-8.693-1.365-13.121H155.154c-.438,4.371-.92,8.75-1.358,13.179H125.869c2.344-12.914,4.687-25.721,7.038-38.529,4.417-.371,14.339,6.029,13.909,9.121-.329-.214-.548-.371-.818-.529a33.726,33.726,0,0,0-7.746-4.75,5.489,5.489,0,0,0-.818-.271c-.657-.157-1.037.107-.927.907,5.344,2.514,8.674,7.1,12.105,11.743,1.146-.429,2.293-.857,3.548-1.286q-1.8-5.483-3.548-10.986c1.694-.214,8.075,1.436,9.221,2.45a4.393,4.393,0,0,1-.657,1.336c-.818,1.121-1.745,2.136-2.512,3.257a3.1,3.1,0,0,0-.438,3.093c1.2-.371,2.351-.693,3.5-1.071,2.942-1.007,6-1.914,8.893-3.143,2.993-1.286,2.453-1.336,2.015-3.471,1.8.429,3.651.907,5.512,1.229a8.044,8.044,0,0,0,4.629-.371,2.627,2.627,0,0,0,1.862-3.307,18.509,18.509,0,0,0-2.57-5.929c-.54-.907-1.2-1.807-1.8-2.664a.869.869,0,0,1-.219.107,19.48,19.48,0,0,1,1.2,2.714,28.139,28.139,0,0,1,1.2,4.7c.219,1.55-.657,2.3-2.19,2.514-2.446.314-4.746-.429-7.031-1.229-.051,0-.051-.057-.051-.057a6.408,6.408,0,0,1-3.818-2.879,21.4,21.4,0,0,0-7.914-6.779,2.822,2.822,0,0,1-1.745-2.4,10.379,10.379,0,0,0-.759-2.507,6.9,6.9,0,0,0-5.023-4.164c-2.015-.536-4.03-.857-6.053-1.443a14.27,14.27,0,0,1-7.14-4.536c.978-5.336,1.906-10.614,2.884-15.95h40.368q2.289,11.518,4.578,23.214c-1.906-.379-3.651-.75-5.454-1.021a32,32,0,0,0-11.068-.314,10.593,10.593,0,0,0-2.782.907c-1.971.907-2.621,2.343-1.8,4.321a23.822,23.822,0,0,0,2.621,4.586,44.032,44.032,0,0,0,6.761,7.1V55.886c-1.577-1.814-3.212-3.521-4.687-5.386a20.4,20.4,0,0,1-2.453-4.214,2.332,2.332,0,0,1,1.139-3.15,11.7,11.7,0,0,1,3.22-1.179,31.171,31.171,0,0,1,10.2.486c1.416.214,2.84.586,4.366.857,3.38,17.121,6.819,34.25,10.2,51.486H166.886Zm-79.2-60.029H71.213V19.707H131.7v15H115.348V94.786H87.633C87.684,74.829,87.684,54.871,87.684,34.757Zm-59.175,82.6V102.471H31.78c2.074,3.257,4.147,6.514,6.279,9.821.051,0,.161-.057.219-.057v-9.764h3.045v14.886H38c-2.074-3.25-4.2-6.564-6.279-9.871-.1.057-.161.057-.27.107v9.764Zm29.781,0V102.529c.329,0,.6-.057.876-.057h5.5c4.366.057,6.98,2.564,7.089,6.829a9.29,9.29,0,0,1-.708,4.429,5.422,5.422,0,0,1-4.636,3.571c-2.621.214-5.344.057-8.126.057ZM61.62,114.8h3.161a3.51,3.51,0,0,0,3.432-2.507,6.953,6.953,0,0,0,.058-4.214,3.439,3.439,0,0,0-2.84-2.779,30.352,30.352,0,0,0-3.811-.214Zm114.32,2.557H172.61V102.579c.11-.057.168-.107.219-.107,2.891,0,5.841-.107,8.725,0a3.891,3.891,0,0,1,3.716,3.043,3.971,3.971,0,0,1-1.971,4.643c-.051.05-.051.107-.161.157.38.321.927.536,1.1.907a13.41,13.41,0,0,1,.978,2.829,32.323,32.323,0,0,1,.329,3.307h-3.059a12.4,12.4,0,0,1-.27-1.436l-.161-1.657c-.219-2.079-.986-2.771-3.059-2.771H175.94v5.864Zm0-8a45.043,45.043,0,0,0,4.687-.271c.986-.1,1.424-.957,1.424-2.029,0-1.114-.438-1.914-1.424-2.021a44.425,44.425,0,0,0-4.687-.057Zm49.092,4.8c-.387,1.071-.767,2.136-1.2,3.2H220.5c1.971-5.014,3.818-9.929,5.782-14.886h3.49c1.913,4.964,3.767,9.871,5.673,14.886h-3.38c-.38-1.071-.759-2.136-1.2-3.25-1.906.05-3.818.05-5.841.05Zm5.016-2.45c-.657-1.929-1.314-3.686-1.913-5.393h-.27c-.657,1.757-1.256,3.521-1.964,5.393ZM149.1,105.143h-4.527v-2.614h12.383v2.614H152.43v12.271h-3.271C149.1,113.307,149.1,109.3,149.1,105.143Zm112.363,9.6v2.614H250.717V102.471h3.169v12.271h7.578Zm-56.233,2.671h-3.11V102.529h3.11Zm-193.639-.057c-.321,0-.591.057-.869.057H8.388V102.471H11.6v14.886Z" transform="translate(-6.526 -18)" fill="#fff"/>
</svg>
